<svg xmlns="http://www.w3.org/2000/svg" viewBox="0 0 600 400" role="img" aria-labelledby="title desc">
  <title id="title">Dampfgrill Compact S Illustration</title>
  <desc id="desc">Compact steam grill on a balcony-inspired backdrop.</desc>
  <defs>
    <linearGradient id="bg" x1="0" y1="1" x2="1" y2="0">
      <stop offset="0%" stop-color="#15212a" />
      <stop offset="100%" stop-color="#1f2f3c" />
    </linearGradient>
    <linearGradient id="balcony" x1="0" y1="0" x2="1" y2="0">
      <stop offset="0%" stop-color="#374b5a" />
      <stop offset="100%" stop-color="#4e6575" />
    </linearGradient>
    <linearGradient id="compact-body" x1="0" y1="0" x2="0" y2="1">
      <stop offset="0%" stop-color="#d4e0ea" />
      <stop offset="100%" stop-color="#8f9cab" />
    </linearGradient>
  </defs>
  <rect width="600" height="400" rx="28" fill="url(#bg)" />
  <g transform="translate(60 60)">
    <rect x="0" y="220" width="480" height="32" rx="16" fill="url(#balcony)" />
    <rect x="16" y="236" width="448" height="18" rx="9" fill="#121c25" opacity="0.8" />
    <g transform="translate(120 60)">
      <rect x="0" y="40" width="240" height="120" rx="26" fill="url(#compact-body)" />
      <rect x="20" y="74" width="200" height="48" rx="16" fill="#1d2a34" opacity="0.9" />
      <rect x="20" y="132" width="200" height="18" rx="9" fill="#415163" opacity="0.8" />
      <g fill="#ff8a65">
        <circle cx="48" cy="92" r="6" />
        <circle cx="92" cy="92" r="6" />
        <circle cx="136" cy="92" r="6" />
        <circle cx="180" cy="92" r="6" />
      </g>
      <g transform="translate(90 -36)" opacity="0.55">
        <path d="M10 90c-8-24 12-44 4-70" fill="none" stroke="#ffffff" stroke-width="6" stroke-linecap="round" />
        <path d="M34 94c-10-30 10-54 2-80" fill="none" stroke="#ffffff" stroke-width="6" stroke-linecap="round" opacity="0.6" />
      </g>
      <g transform="translate(-28 154)">
        <rect x="0" y="0" width="30" height="76" rx="12" fill="#637383" />
        <rect x="30" y="0" width="188" height="12" rx="6" fill="#2c3945" />
        <rect x="218" y="0" width="30" height="76" rx="12" fill="#637383" />
      </g>
    </g>
    <rect x="360" y="24" width="48" height="48" rx="12" fill="#ffb347" opacity="0.75" />
    <rect x="80" y="0" width="120" height="32" rx="16" fill="#2f3f4d" opacity="0.8" />
    <rect x="228" y="12" width="68" height="20" rx="10" fill="#2f3f4d" opacity="0.6" />
  </g>
</svg>
