<svg xmlns="http://www.w3.org/2000/svg" viewBox="0 0 600 400" role="img" aria-labelledby="title desc">
  <title id="title">Dampfgrill Pro X Illustration</title>
  <desc id="desc">Stylised stainless steel steam grill with illuminated details.</desc>
  <defs>
    <linearGradient id="bg" x1="0" y1="0" x2="1" y2="1">
      <stop offset="0%" stop-color="#101924" />
      <stop offset="100%" stop-color="#223548" />
    </linearGradient>
    <linearGradient id="steam" x1="0" y1="1" x2="0" y2="0">
      <stop offset="0%" stop-color="#dfe9f3" stop-opacity="0.05" />
      <stop offset="100%" stop-color="#ffffff" stop-opacity="0.45" />
    </linearGradient>
    <linearGradient id="metal" x1="0" y1="0" x2="1" y2="0">
      <stop offset="0%" stop-color="#a7b2bd" />
      <stop offset="50%" stop-color="#d9e2ec" />
      <stop offset="100%" stop-color="#909aa5" />
    </linearGradient>
  </defs>
  <rect fill="url(#bg)" width="600" height="400" rx="28" />
  <g transform="translate(90 70)">
    <rect x="20" y="60" width="380" height="140" rx="18" fill="url(#metal)" />
    <rect x="44" y="88" width="332" height="28" rx="8" fill="#0d1117" opacity="0.9" />
    <rect x="44" y="130" width="332" height="46" rx="10" fill="#18232f" />
    <rect x="64" y="138" width="80" height="12" rx="6" fill="#3dd6ff" opacity="0.6" />
    <rect x="160" y="138" width="80" height="12" rx="6" fill="#ff9557" opacity="0.7" />
    <rect x="256" y="138" width="80" height="12" rx="6" fill="#7fffd4" opacity="0.55" />
    <g transform="translate(190 10)">
      <ellipse cx="50" cy="20" rx="70" ry="20" fill="#141b24" opacity="0.8" />
      <ellipse cx="50" cy="16" rx="56" ry="16" fill="#d0dae4" />
      <path d="M0 16h100v30c0 18-22 32-50 32s-50-14-50-32z" fill="#edf3fa" opacity="0.85" />
      <path d="M26 6c10 8 0 18 8 28 7 9 21 7 27 0" fill="none" stroke="#ffffff" stroke-width="4" stroke-linecap="round" opacity="0.45" />
      <path d="M52 0c10 9 0 20 7 30 6 9 18 9 26 2" fill="none" stroke="#ffffff" stroke-width="4" stroke-linecap="round" opacity="0.35" />
    </g>
    <g transform="translate(28 192)">
      <rect x="0" y="0" width="40" height="80" rx="10" fill="#5f6b78" />
      <rect x="344" y="0" width="40" height="80" rx="10" fill="#5f6b78" />
      <rect x="0" y="62" width="40" height="12" rx="6" fill="#2f3742" />
      <rect x="344" y="62" width="40" height="12" rx="6" fill="#2f3742" />
    </g>
  </g>
  <g transform="translate(445 60)">
    <path d="M12 120c18-60 6-96 24-132" fill="none" stroke="url(#steam)" stroke-width="10" stroke-linecap="round" />
    <path d="M52 120c16-52 0-92 16-132" fill="none" stroke="url(#steam)" stroke-width="8" stroke-linecap="round" opacity="0.65" />
  </g>
</svg>
