<svg xmlns="http://www.w3.org/2000/svg" viewBox="0 0 600 400" role="img" aria-labelledby="title desc">
  <title id="title">Dampfgrill Tisch T Illustration</title>
  <desc id="desc">Portable tabletop steam grill with warm accent lighting.</desc>
  <defs>
    <linearGradient id="bg" x1="0" y1="0" x2="0" y2="1">
      <stop offset="0%" stop-color="#1c252f" />
      <stop offset="100%" stop-color="#0f151c" />
    </linearGradient>
    <linearGradient id="table" x1="0" y1="0" x2="1" y2="0">
      <stop offset="0%" stop-color="#36291f" />
      <stop offset="100%" stop-color="#4a3424" />
    </linearGradient>
    <linearGradient id="body" x1="0" y1="0" x2="0" y2="1">
      <stop offset="0%" stop-color="#f4f5f7" />
      <stop offset="100%" stop-color="#aeb4bd" />
    </linearGradient>
  </defs>
  <rect width="600" height="400" rx="28" fill="url(#bg)" />
  <g transform="translate(80 80)">
    <rect x="0" y="220" width="440" height="40" rx="12" fill="url(#table)" />
    <rect x="20" y="232" width="400" height="18" rx="8" fill="#1c1815" opacity="0.75" />
    <g transform="translate(100 80)">
      <rect x="0" y="20" width="240" height="120" rx="24" fill="url(#body)" />
      <rect x="16" y="52" width="208" height="52" rx="18" fill="#141b23" opacity="0.92" />
      <rect x="16" y="112" width="208" height="22" rx="11" fill="#2d3946" opacity="0.8" />
      <g transform="translate(68 -42)" opacity="0.6">
        <path d="M0 100c-12-26 16-52 8-84" fill="none" stroke="#ffffff" stroke-width="5" stroke-linecap="round" />
        <path d="M28 102c-8-30 12-56 6-88" fill="none" stroke="#ffffff" stroke-width="5" stroke-linecap="round" opacity="0.6" />
        <path d="M52 100c-6-28 10-52 6-82" fill="none" stroke="#ffffff" stroke-width="5" stroke-linecap="round" opacity="0.45" />
      </g>
      <g transform="translate(-14 140)">
        <rect x="0" y="0" width="24" height="70" rx="10" fill="#6b6f77" />
        <rect x="24" y="0" width="196" height="10" rx="5" fill="#343941" />
        <rect x="220" y="0" width="24" height="70" rx="10" fill="#6b6f77" />
      </g>
    </g>
    <g transform="translate(20 136)">
      <rect x="0" y="0" width="60" height="26" rx="12" fill="#e8752d" opacity="0.9" />
      <rect x="72" y="0" width="60" height="26" rx="12" fill="#ff9f43" opacity="0.8" />
      <rect x="144" y="0" width="60" height="26" rx="12" fill="#ffd966" opacity="0.7" />
    </g>
    <rect x="320" y="16" width="72" height="32" rx="14" fill="#ff8a50" opacity="0.6" />
  </g>
</svg>
